<svg xmlns="http://www.w3.org/2000/svg" viewBox="0 0 512.0 512.0" width="512" height="512"><defs><linearGradient id="gi1" x1="0" y1="0" x2="0" y2="1"><stop offset="0" stop-color="#5F55C9"/><stop offset="1" stop-color="#453D9F"/></linearGradient></defs><rect width="512.0" height="512.0" rx="114.5" fill="url(#gi1)"/><g transform="translate(14.29,1.26) scale(5.0146)"><path d="M 13.85 80.95 L 14.71 80.91 L 15.56 80.85 L 16.41 80.79 L 17.26 80.73 L 18.11 80.67 L 18.96 80.60 L 19.81 80.52 L 20.66 80.45 L 21.51 80.37 L 22.35 80.28 L 23.20 80.19 L 24.04 80.10 L 24.35 80.06 L 24.39 79.91 L 24.39 79.89 L 24.65 78.79 L 24.65 78.78 L 24.92 77.68 L 24.92 77.67 L 25.19 76.57 L 25.19 76.56 L 25.47 75.47 L 25.47 75.46 L 25.76 74.37 L 25.76 74.35 L 26.05 73.26 L 26.05 73.25 L 26.35 72.17 L 26.35 72.15 L 26.65 71.07 L 26.65 71.06 L 26.96 69.98 L 26.96 69.96 L 27.28 68.89 L 27.28 68.87 L 27.60 67.80 L 27.60 67.78 L 27.93 66.71 L 27.93 66.70 L 28.26 65.63 L 28.26 65.61 L 28.60 64.54 L 28.61 64.53 L 28.80 63.91 L 28.61 63.93 L 28.60 63.93 L 27.53 64.05 L 27.52 64.05 L 26.46 64.15 L 26.45 64.15 L 25.38 64.25 L 25.37 64.25 L 24.30 64.34 L 24.29 64.35 L 23.22 64.43 L 23.21 64.43 L 22.14 64.51 L 22.13 64.51 L 21.06 64.59 L 21.05 64.59 L 19.97 64.65 L 19.96 64.66 L 18.89 64.72 L 18.88 64.72 L 17.80 64.77 L 17.79 64.77 L 17.55 64.78 L 17.33 65.47 L 17.05 66.32 L 16.79 67.17 L 16.52 68.02 L 16.26 68.88 L 16.00 69.73 L 15.75 70.59 L 15.50 71.45 L 15.25 72.31 L 15.01 73.17 L 14.77 74.04 L 14.54 74.90 L 14.31 75.77 L 14.08 76.64 L 13.85 77.51 L 13.64 78.38 L 13.42 79.25 L 13.21 80.12 L 13.00 81.00 Z M 29.09 79.45 L 29.93 79.33 L 30.77 79.20 L 31.60 79.07 L 32.44 78.94 L 33.28 78.80 L 34.11 78.66 L 34.94 78.52 L 35.78 78.37 L 36.61 78.21 L 37.44 78.05 L 37.67 78.01 L 37.74 77.67 L 37.75 77.66 L 38.01 76.56 L 38.01 76.55 L 38.27 75.45 L 38.28 75.43 L 38.55 74.34 L 38.55 74.33 L 38.83 73.23 L 38.83 73.22 L 39.11 72.13 L 39.11 72.12 L 39.40 71.03 L 39.41 71.02 L 39.70 69.93 L 39.70 69.92 L 40.01 68.83 L 40.01 68.82 L 40.32 67.74 L 40.32 67.73 L 40.63 66.65 L 40.64 66.64 L 40.95 65.56 L 40.96 65.55 L 41.28 64.47 L 41.29 64.46 L 41.62 63.39 L 41.62 63.38 L 41.96 62.31 L 41.96 62.30 L 42.07 61.96 L 41.40 62.08 L 41.39 62.08 L 40.34 62.27 L 40.33 62.27 L 39.28 62.45 L 39.27 62.45 L 38.22 62.63 L 38.21 62.63 L 37.16 62.80 L 37.15 62.80 L 36.09 62.96 L 36.08 62.97 L 35.03 63.12 L 35.02 63.12 L 33.96 63.27 L 33.95 63.27 L 33.41 63.35 L 33.29 63.70 L 32.94 64.75 L 32.61 65.81 L 32.27 66.87 L 31.94 67.93 L 31.62 68.99 L 31.31 70.06 L 31.00 71.13 L 30.69 72.20 L 30.40 73.27 L 30.11 74.35 L 29.82 75.42 L 29.54 76.50 L 29.27 77.59 L 29.00 78.67 L 28.80 79.49 Z M 42.41 77.02 L 43.23 76.84 L 44.06 76.65 L 44.88 76.45 L 45.70 76.25 L 46.53 76.05 L 47.35 75.85 L 48.17 75.64 L 48.99 75.42 L 49.80 75.20 L 50.62 74.98 L 50.76 74.94 L 50.89 74.41 L 50.89 74.39 L 51.15 73.29 L 51.15 73.28 L 51.42 72.18 L 51.42 72.17 L 51.69 71.07 L 51.69 71.06 L 51.97 69.97 L 51.97 69.96 L 52.26 68.87 L 52.26 68.85 L 52.55 67.76 L 52.55 67.75 L 52.85 66.67 L 52.85 66.65 L 53.15 65.57 L 53.15 65.56 L 53.46 64.48 L 53.46 64.46 L 53.78 63.39 L 53.78 63.37 L 54.10 62.30 L 54.10 62.28 L 54.43 61.21 L 54.43 61.20 L 54.76 60.13 L 54.76 60.11 L 55.10 59.04 L 55.11 59.03 L 55.11 59.01 L 55.05 59.03 L 55.03 59.03 L 54.00 59.30 L 53.99 59.31 L 52.96 59.57 L 52.95 59.57 L 51.92 59.83 L 51.91 59.83 L 50.87 60.08 L 50.86 60.09 L 49.83 60.33 L 49.81 60.33 L 48.78 60.57 L 48.76 60.58 L 47.73 60.81 L 47.71 60.81 L 46.80 61.01 L 46.65 61.47 L 46.30 62.52 L 45.96 63.58 L 45.63 64.63 L 45.30 65.69 L 44.98 66.76 L 44.66 67.82 L 44.35 68.89 L 44.05 69.96 L 43.75 71.04 L 43.46 72.11 L 43.18 73.19 L 42.90 74.27 L 42.62 75.35 L 42.35 76.44 L 42.20 77.07 Z M 55.51 73.57 L 56.32 73.32 L 57.13 73.06 L 57.94 72.80 L 58.75 72.54 L 59.56 72.27 L 60.37 72.00 L 61.18 71.73 L 61.98 71.45 L 62.79 71.17 L 63.59 70.88 L 64.40 70.59 L 65.20 70.30 L 66.00 70.00 L 66.21 69.12 L 66.42 68.25 L 66.64 67.38 L 66.85 66.51 L 67.08 65.64 L 67.31 64.77 L 67.54 63.90 L 67.77 63.04 L 68.01 62.17 L 68.25 61.31 L 68.50 60.45 L 68.75 59.59 L 69.00 58.73 L 69.26 57.88 L 69.52 57.02 L 69.79 56.17 L 70.05 55.32 L 70.33 54.47 L 70.42 54.20 L 69.49 54.53 L 69.47 54.54 L 68.46 54.90 L 68.45 54.90 L 67.44 55.25 L 67.43 55.26 L 66.41 55.60 L 66.40 55.61 L 65.39 55.95 L 65.38 55.95 L 64.36 56.28 L 64.35 56.29 L 63.33 56.61 L 63.32 56.62 L 62.30 56.94 L 62.29 56.94 L 61.27 57.26 L 61.25 57.26 L 60.23 57.57 L 60.22 57.57 L 59.98 57.64 L 59.79 58.20 L 59.44 59.25 L 59.11 60.31 L 58.77 61.37 L 58.44 62.43 L 58.12 63.49 L 57.81 64.56 L 57.50 65.63 L 57.19 66.70 L 56.90 67.77 L 56.61 68.85 L 56.32 69.92 L 56.04 71.00 L 55.77 72.09 L 55.50 73.17 L 55.39 73.60 Z M 72.34 48.56 L 72.65 47.72 L 72.95 46.89 L 73.27 46.05 L 73.58 45.22 L 73.90 44.39 L 74.22 43.56 L 74.55 42.73 L 74.88 41.90 L 75.21 41.07 L 75.55 40.25 L 75.89 39.43 L 76.24 38.60 L 76.59 37.78 L 76.94 36.97 L 77.07 36.65 L 76.49 36.87 L 76.47 36.87 L 75.46 37.23 L 75.45 37.23 L 74.44 37.59 L 74.43 37.59 L 73.41 37.94 L 73.40 37.94 L 72.39 38.28 L 72.38 38.28 L 71.36 38.62 L 71.35 38.62 L 70.33 38.95 L 70.32 38.95 L 69.30 39.27 L 69.29 39.28 L 68.27 39.59 L 68.25 39.59 L 67.23 39.90 L 67.22 39.91 L 66.85 40.01 L 66.57 40.65 L 66.12 41.66 L 65.68 42.68 L 65.25 43.69 L 64.82 44.72 L 64.40 45.74 L 63.98 46.76 L 63.57 47.79 L 63.17 48.82 L 62.77 49.86 L 62.37 50.89 L 61.99 51.93 L 61.69 52.73 L 62.05 52.61 L 63.06 52.29 L 64.06 51.96 L 65.06 51.63 L 66.06 51.28 L 67.07 50.94 L 68.06 50.58 L 69.06 50.22 L 70.06 49.85 L 71.05 49.48 L 72.05 49.10 L 72.10 49.23 Z M 79.52 31.28 L 79.90 30.47 L 80.29 29.67 L 80.68 28.87 L 81.07 28.06 L 81.47 27.26 L 81.87 26.47 L 82.28 25.67 L 82.69 24.87 L 83.10 24.08 L 83.52 23.29 L 83.94 22.50 L 84.37 21.71 L 84.80 20.92 L 85.23 20.13 L 85.67 19.35 L 86.11 18.56 L 86.55 17.78 L 87.00 17.00 L 86.20 17.30 L 85.40 17.59 L 84.59 17.88 L 83.79 18.17 L 82.98 18.45 L 82.18 18.73 L 81.37 19.00 L 80.56 19.27 L 79.75 19.54 L 78.94 19.80 L 78.13 20.06 L 77.32 20.32 L 76.51 20.57 L 76.34 20.62 L 76.75 20.86 L 76.19 21.83 L 75.63 22.80 L 75.07 23.77 L 74.52 24.75 L 73.98 25.72 L 73.45 26.70 L 72.92 27.68 L 72.39 28.66 L 71.87 29.65 L 71.36 30.64 L 70.86 31.63 L 70.36 32.62 L 69.86 33.62 L 69.37 34.61 L 69.24 34.89 L 70.06 34.62 L 71.06 34.30 L 72.06 33.96 L 73.06 33.62 L 74.07 33.27 L 75.06 32.92 L 76.06 32.55 L 77.06 32.19 L 78.05 31.81 L 79.05 31.43 L 79.23 31.89 Z M 70.80 22.20 L 69.99 22.42 L 69.17 22.64 L 68.35 22.85 L 67.53 23.05 L 66.70 23.25 L 65.88 23.45 L 65.06 23.65 L 64.23 23.84 L 63.43 24.02 L 63.61 24.12 L 63.04 25.09 L 62.48 26.06 L 61.93 27.04 L 61.38 28.01 L 60.84 28.99 L 60.30 29.96 L 59.77 30.94 L 59.25 31.93 L 58.73 32.91 L 58.22 33.90 L 57.71 34.89 L 57.21 35.88 L 56.72 36.88 L 56.23 37.88 L 55.90 38.57 L 56.89 38.33 L 57.91 38.09 L 58.93 37.83 L 59.95 37.57 L 60.96 37.31 L 61.98 37.03 L 62.99 36.75 L 63.83 36.52 L 64.13 35.85 L 64.14 35.84 L 64.61 34.83 L 64.62 34.82 L 65.10 33.80 L 65.11 33.79 L 65.59 32.78 L 65.60 32.77 L 66.09 31.76 L 66.10 31.75 L 66.60 30.75 L 66.60 30.74 L 67.11 29.73 L 67.11 29.72 L 67.63 28.72 L 67.63 28.71 L 68.15 27.71 L 68.15 27.70 L 68.68 26.71 L 68.68 26.69 L 69.21 25.70 L 69.22 25.69 L 69.75 24.70 L 69.76 24.69 L 70.30 23.70 L 70.31 23.69 L 70.85 22.70 L 70.86 22.69 L 71.19 22.10 Z M 57.61 25.21 L 56.78 25.37 L 55.94 25.52 L 55.11 25.66 L 54.28 25.80 L 53.44 25.94 L 52.60 26.07 L 51.77 26.20 L 50.93 26.33 L 50.21 26.43 L 49.69 27.33 L 49.13 28.30 L 48.57 29.27 L 48.02 30.25 L 47.48 31.22 L 46.95 32.20 L 46.42 33.18 L 45.89 34.16 L 45.37 35.15 L 44.86 36.14 L 44.36 37.13 L 43.86 38.12 L 43.36 39.12 L 42.87 40.11 L 42.39 41.11 L 42.37 41.16 L 42.46 41.15 L 43.50 40.99 L 44.54 40.82 L 45.57 40.65 L 46.61 40.47 L 47.64 40.28 L 48.68 40.09 L 49.71 39.89 L 50.73 39.69 L 50.99 39.12 L 51.00 39.11 L 51.47 38.09 L 51.48 38.08 L 51.96 37.07 L 51.96 37.06 L 52.45 36.05 L 52.46 36.04 L 52.95 35.03 L 52.95 35.02 L 53.45 34.01 L 53.46 34.00 L 53.96 33.00 L 53.97 32.99 L 54.48 31.99 L 54.49 31.97 L 55.00 30.98 L 55.01 30.97 L 55.53 29.97 L 55.54 29.96 L 56.07 28.96 L 56.07 28.95 L 56.61 27.96 L 56.62 27.95 L 57.16 26.96 L 57.16 26.95 L 57.71 25.97 L 57.72 25.96 L 58.20 25.10 Z M 44.20 27.19 L 43.35 27.28 L 42.51 27.37 L 41.66 27.45 L 40.81 27.52 L 39.96 27.60 L 39.11 27.67 L 38.26 27.73 L 37.41 27.79 L 36.56 27.85 L 35.71 27.91 L 34.85 27.95 L 34.00 28.00 L 33.55 28.78 L 33.11 29.56 L 32.67 30.35 L 32.23 31.13 L 31.80 31.92 L 31.37 32.71 L 30.94 33.50 L 30.52 34.29 L 30.10 35.08 L 29.69 35.87 L 29.28 36.67 L 28.87 37.47 L 28.47 38.26 L 28.07 39.06 L 27.68 39.87 L 27.29 40.67 L 26.90 41.47 L 26.52 42.28 L 26.26 42.82 L 26.72 42.80 L 27.78 42.73 L 28.84 42.66 L 29.89 42.58 L 30.95 42.49 L 32.00 42.40 L 33.05 42.30 L 34.10 42.20 L 35.15 42.09 L 36.20 41.97 L 37.25 41.85 L 37.41 41.83 L 37.63 41.35 L 37.64 41.34 L 38.11 40.33 L 38.12 40.32 L 38.60 39.30 L 38.61 39.29 L 39.09 38.28 L 39.10 38.27 L 39.59 37.26 L 39.60 37.25 L 40.10 36.25 L 40.10 36.24 L 40.61 35.23 L 40.61 35.22 L 41.13 34.22 L 41.13 34.21 L 41.65 33.21 L 41.65 33.20 L 42.18 32.21 L 42.18 32.19 L 42.71 31.20 L 42.72 31.19 L 43.25 30.20 L 43.26 30.19 L 43.80 29.20 L 43.81 29.19 L 44.35 28.20 L 44.36 28.19 L 44.91 27.21 L 44.92 27.20 L 44.97 27.10 Z M 24.29 47.15 L 23.94 47.97 L 23.59 48.78 L 23.24 49.60 L 22.89 50.43 L 22.55 51.25 L 22.21 52.07 L 21.88 52.90 L 21.55 53.73 L 21.22 54.56 L 20.90 55.39 L 20.58 56.22 L 20.27 57.05 L 19.95 57.89 L 19.65 58.72 L 19.34 59.56 L 19.04 60.40 L 19.01 60.50 L 19.72 60.46 L 20.78 60.40 L 21.84 60.32 L 22.89 60.25 L 23.95 60.16 L 25.00 60.07 L 26.05 59.97 L 27.10 59.87 L 28.15 59.76 L 29.20 59.64 L 30.25 59.52 L 30.28 59.52 L 30.40 59.17 L 30.40 59.16 L 30.77 58.10 L 30.78 58.09 L 31.16 57.04 L 31.16 57.03 L 31.55 55.98 L 31.55 55.97 L 31.94 54.92 L 31.94 54.91 L 32.34 53.86 L 32.35 53.85 L 32.75 52.80 L 32.75 52.79 L 33.16 51.75 L 33.17 51.74 L 33.58 50.70 L 33.59 50.69 L 34.01 49.65 L 34.01 49.64 L 34.44 48.61 L 34.45 48.60 L 34.88 47.56 L 34.88 47.55 L 35.32 46.52 L 35.33 46.51 L 35.43 46.29 L 34.53 46.38 L 34.52 46.38 L 33.46 46.48 L 33.45 46.49 L 32.38 46.58 L 32.37 46.59 L 31.30 46.68 L 31.29 46.68 L 30.22 46.77 L 30.21 46.77 L 29.14 46.85 L 29.13 46.85 L 28.06 46.92 L 28.05 46.92 L 26.97 46.99 L 26.96 46.99 L 25.89 47.05 L 25.88 47.05 L 24.80 47.10 L 24.79 47.10 L 24.30 47.13 Z M 40.27 45.70 L 40.07 46.15 L 39.62 47.16 L 39.18 48.18 L 38.75 49.19 L 38.32 50.22 L 37.90 51.24 L 37.48 52.26 L 37.07 53.29 L 36.67 54.32 L 36.27 55.36 L 35.87 56.39 L 35.49 57.43 L 35.11 58.47 L 34.95 58.89 L 35.46 58.81 L 36.50 58.65 L 37.54 58.49 L 38.57 58.31 L 39.61 58.13 L 40.64 57.95 L 41.68 57.76 L 42.71 57.56 L 43.60 57.38 L 43.75 56.94 L 43.76 56.92 L 44.13 55.87 L 44.13 55.86 L 44.51 54.80 L 44.52 54.79 L 44.90 53.74 L 44.91 53.73 L 45.30 52.68 L 45.30 52.67 L 45.70 51.62 L 45.70 51.61 L 46.11 50.57 L 46.11 50.56 L 46.52 49.51 L 46.52 49.50 L 46.94 48.46 L 46.94 48.45 L 47.37 47.42 L 47.37 47.40 L 47.80 46.37 L 47.80 46.36 L 48.24 45.33 L 48.24 45.32 L 48.64 44.37 L 48.40 44.41 L 48.39 44.42 L 47.34 44.60 L 47.33 44.60 L 46.28 44.79 L 46.27 44.79 L 45.22 44.96 L 45.21 44.96 L 44.16 45.13 L 44.15 45.14 L 43.09 45.30 L 43.08 45.30 L 42.03 45.45 L 42.02 45.46 L 40.96 45.61 L 40.95 45.61 Z M 53.67 43.37 L 53.43 43.91 L 52.98 44.92 L 52.54 45.94 L 52.11 46.96 L 51.68 47.98 L 51.25 49.00 L 50.84 50.03 L 50.43 51.06 L 50.02 52.09 L 49.62 53.12 L 49.23 54.15 L 48.84 55.19 L 48.46 56.23 L 48.42 56.34 L 48.87 56.24 L 49.89 56.00 L 50.91 55.75 L 51.93 55.50 L 52.95 55.24 L 53.96 54.97 L 54.98 54.70 L 55.99 54.42 L 56.71 54.22 L 56.90 53.67 L 56.90 53.66 L 57.27 52.60 L 57.28 52.59 L 57.66 51.54 L 57.66 51.53 L 58.05 50.48 L 58.05 50.47 L 58.44 49.42 L 58.44 49.41 L 58.84 48.36 L 58.85 48.35 L 59.25 47.30 L 59.25 47.29 L 59.66 46.25 L 59.67 46.24 L 60.08 45.20 L 60.09 45.19 L 60.51 44.15 L 60.51 44.14 L 60.94 43.11 L 60.95 43.10 L 61.38 42.06 L 61.38 42.05 L 61.63 41.47 L 61.00 41.64 L 60.99 41.64 L 59.96 41.90 L 59.95 41.91 L 58.92 42.16 L 58.91 42.17 L 57.87 42.42 L 57.86 42.42 L 56.83 42.66 L 56.81 42.67 L 55.78 42.91 L 55.76 42.91 L 54.73 43.14 L 54.71 43.14 L 53.68 43.37 Z" fill="#F4F3FB" fill-rule="evenodd"/><path d="M 39.68 34.70 L 39.86 17.85 L 25.37 26.44 L 29.42 28.78 L 29.39 28.83 L 29.38 28.86 L 28.66 30.15 L 28.65 30.17 L 27.95 31.46 L 27.94 31.49 L 27.24 32.78 L 27.23 32.81 L 26.55 34.11 L 26.54 34.13 L 25.87 35.44 L 25.85 35.46 L 25.19 36.77 L 25.18 36.79 L 24.53 38.11 L 24.52 38.13 L 23.88 39.45 L 23.87 39.47 L 23.24 40.80 L 23.22 40.82 L 22.60 42.15 L 22.59 42.17 L 21.98 43.50 L 21.97 43.52 L 21.37 44.86 L 21.36 44.88 L 20.77 46.22 L 20.76 46.25 L 20.18 47.59 L 20.17 47.61 L 19.60 48.96 L 19.59 48.98 L 19.03 50.33 L 19.02 50.36 L 18.47 51.71 L 18.46 51.74 L 17.93 53.10 L 17.92 53.12 L 17.39 54.48 L 17.38 54.51 L 16.86 55.88 L 16.85 55.90 L 16.34 57.27 L 16.34 57.30 L 15.84 58.67 L 15.83 58.70 L 15.34 60.08 L 15.33 60.10 L 14.86 61.48 L 14.85 61.51 L 14.38 62.90 L 14.37 62.92 L 13.92 64.31 L 13.91 64.34 L 13.46 65.73 L 13.46 65.76 L 13.02 67.16 L 13.01 67.18 L 12.59 68.59 L 12.58 68.61 L 12.16 70.02 L 12.16 70.05 L 11.75 71.46 L 11.74 71.48 L 11.35 72.90 L 11.34 72.92 L 10.96 74.34 L 10.95 74.37 L 10.58 75.79 L 10.57 75.82 L 10.21 77.24 L 10.20 77.27 L 9.85 78.70 L 9.84 78.73 L 9.50 80.16 L 9.43 80.51 L 9.40 80.86 L 9.41 81.22 L 9.44 81.57 L 9.52 81.91 L 9.62 82.25 L 9.76 82.57 L 9.93 82.88 L 10.13 83.18 L 10.36 83.45 L 10.61 83.69 L 10.89 83.91 L 11.18 84.11 L 11.50 84.27 L 11.82 84.40 L 12.16 84.50 L 12.51 84.57 L 12.86 84.60 L 13.22 84.59 L 13.57 84.56 L 13.91 84.48 L 14.25 84.38 L 14.57 84.24 L 14.88 84.07 L 15.18 83.87 L 15.45 83.64 L 15.69 83.39 L 15.91 83.11 L 16.11 82.82 L 16.27 82.50 L 16.40 82.18 L 16.50 81.84 L 16.84 80.41 L 17.19 79.01 L 17.55 77.61 L 17.91 76.21 L 18.29 74.82 L 18.68 73.43 L 19.07 72.04 L 19.48 70.66 L 19.90 69.28 L 20.33 67.91 L 20.76 66.54 L 21.21 65.18 L 21.67 63.82 L 22.14 62.46 L 22.61 61.11 L 23.10 59.76 L 23.60 58.41 L 24.11 57.07 L 24.63 55.74 L 25.15 54.40 L 25.69 53.07 L 26.24 51.75 L 26.80 50.43 L 27.37 49.11 L 27.94 47.80 L 28.53 46.49 L 29.13 45.18 L 29.74 43.88 L 30.36 42.59 L 30.99 41.29 L 31.63 40.00 L 32.27 38.72 L 32.93 37.44 L 33.60 36.16 L 34.28 34.89 L 34.97 33.62 L 35.66 32.38 Z" fill="#FF4D87" fill-rule="evenodd"/><path d="M 65.78 78.89 L 76.66 66.02 L 60.01 63.41 L 61.63 67.76 L 60.60 68.12 L 59.31 68.56 L 58.02 68.99 L 56.73 69.41 L 55.43 69.82 L 54.13 70.22 L 52.83 70.61 L 51.53 70.99 L 50.23 71.36 L 48.92 71.71 L 47.61 72.06 L 46.30 72.40 L 44.99 72.72 L 43.67 73.04 L 42.36 73.34 L 41.04 73.64 L 39.71 73.92 L 38.39 74.20 L 37.06 74.46 L 35.74 74.71 L 34.41 74.95 L 33.07 75.19 L 31.74 75.41 L 30.40 75.62 L 29.06 75.82 L 27.72 76.01 L 26.38 76.19 L 25.03 76.36 L 23.68 76.51 L 22.33 76.66 L 20.98 76.80 L 19.63 76.93 L 18.27 77.04 L 16.91 77.15 L 15.55 77.24 L 14.18 77.33 L 12.80 77.41 L 12.45 77.44 L 12.11 77.51 L 11.77 77.62 L 11.44 77.75 L 11.13 77.92 L 10.84 78.12 L 10.57 78.35 L 10.32 78.60 L 10.10 78.87 L 9.90 79.17 L 9.74 79.48 L 9.60 79.81 L 9.50 80.14 L 9.44 80.49 L 9.40 80.84 L 9.41 81.20 L 9.44 81.55 L 9.51 81.89 L 9.62 82.23 L 9.75 82.56 L 9.92 82.87 L 10.12 83.16 L 10.35 83.43 L 10.60 83.68 L 10.87 83.90 L 11.17 84.10 L 11.48 84.26 L 11.81 84.40 L 12.14 84.50 L 12.49 84.56 L 12.84 84.60 L 13.20 84.59 L 14.59 84.52 L 14.62 84.52 L 16.01 84.43 L 16.04 84.43 L 17.43 84.33 L 17.46 84.33 L 18.84 84.22 L 18.87 84.22 L 20.26 84.10 L 20.28 84.10 L 21.67 83.97 L 21.69 83.96 L 23.07 83.82 L 23.10 83.82 L 24.48 83.67 L 24.51 83.67 L 25.89 83.51 L 25.91 83.50 L 27.29 83.33 L 27.32 83.33 L 28.69 83.14 L 28.72 83.14 L 30.08 82.95 L 30.11 82.94 L 31.48 82.74 L 31.51 82.73 L 32.87 82.52 L 32.90 82.51 L 34.26 82.29 L 34.29 82.28 L 35.65 82.05 L 35.68 82.04 L 37.04 81.79 L 37.07 81.79 L 38.42 81.53 L 38.45 81.52 L 39.81 81.26 L 39.83 81.25 L 41.19 80.97 L 41.21 80.96 L 42.56 80.67 L 42.59 80.67 L 43.94 80.37 L 43.97 80.36 L 45.31 80.05 L 45.34 80.04 L 46.68 79.72 L 46.71 79.71 L 48.05 79.38 L 48.08 79.38 L 49.42 79.03 L 49.44 79.02 L 50.78 78.67 L 50.81 78.66 L 52.14 78.30 L 52.17 78.29 L 53.50 77.91 L 53.53 77.91 L 54.86 77.52 L 54.88 77.51 L 56.21 77.12 L 56.24 77.11 L 57.56 76.70 L 57.59 76.69 L 58.91 76.27 L 58.94 76.26 L 60.26 75.84 L 60.29 75.83 L 61.61 75.39 L 61.63 75.38 L 62.95 74.93 L 62.97 74.92 L 64.15 74.51 Z" fill="#FFB627" fill-rule="evenodd"/></g></svg>